<svg width="12" height="11" viewBox="0 0 12 11" fill="none" xmlns="http://www.w3.org/2000/svg">
<path d="M4.66667 7.35294L4.66667 6.72794L0.589167 6.72794L0.583333 9.22794C0.583333 9.92169 1.1025 10.4779 1.75 10.4779L9.91667 10.4779C10.5642 10.4779 11.0833 9.92169 11.0833 9.22794L11.0833 6.72794L7 6.72794L7 7.35294L4.66667 7.35294ZM10.5 1.72794L8.16083 1.72794L8.16083 0.477936L6.99417 -0.772064L4.66083 -0.772064L3.49417 0.477936L3.49417 1.72794L1.16667 1.72794C0.525 1.72794 1.99315e-10 2.29044 2.4406e-10 2.97794L3.66089e-10 4.85294C4.1124e-10 5.54669 0.519167 6.10294 1.16667 6.10294L4.66667 6.10294L4.66667 4.85294L7 4.85294L7 6.10294L10.5 6.10294C11.1417 6.10294 11.6667 5.54044 11.6667 4.85294L11.6667 2.97794C11.6667 2.29044 11.1417 1.72794 10.5 1.72794ZM7 1.72794L4.66667 1.72794L4.66667 0.477936L7 0.477936L7 1.72794Z" fill="white"/>
</svg>
