<svg width="17" height="18" viewBox="0 0 17 18" fill="none" xmlns="http://www.w3.org/2000/svg">
<path d="M5.83289 16.7852V14.1719C5.83288 13.5097 6.37135 12.9718 7.03833 12.9676H9.48737C10.1573 12.9676 10.7004 13.5068 10.7004 14.1719V14.1719V16.7776C10.7004 17.352 11.1672 17.8187 11.7457 17.8229H13.4165C14.1969 17.8249 14.9459 17.5185 15.4984 16.9714C16.0509 16.4243 16.3615 15.6814 16.3615 14.9067V7.48361C16.3614 6.85779 16.082 6.26416 15.5985 5.86265L9.92225 1.35578C8.93002 0.567481 7.51289 0.592947 6.55005 1.41638L0.99585 5.86265C0.489481 6.25232 0.186831 6.84771 0.171875 7.48361V14.8991C0.171875 16.5139 1.49037 17.8229 3.11682 17.8229H4.74951C5.02804 17.8249 5.29587 17.7165 5.49354 17.5216C5.69121 17.3268 5.80238 17.0617 5.80237 16.7852H5.83289Z" fill="white"/>
</svg>
