<svg width="13" height="13" viewBox="0 0 13 13" fill="none" xmlns="http://www.w3.org/2000/svg">
<path d="M11.4726 7.13375C11.4977 6.93062 11.5144 6.71938 11.5144 6.5C11.5144 6.28062 11.4977 6.06938 11.4643 5.86625L12.8766 4.79375C13.002 4.69625 13.0354 4.5175 12.9602 4.37937L11.623 2.12875C11.5395 1.9825 11.364 1.93375 11.2135 1.9825L9.55043 2.6325C9.19942 2.3725 8.8317 2.16125 8.42219 1.99875L8.17147 0.27625C8.1464 0.11375 8.00432 0 7.83718 0H5.16283C4.99568 0 4.86196 0.11375 4.83689 0.27625L4.58617 1.99875C4.17666 2.16125 3.80058 2.38062 3.45793 2.6325L1.79482 1.9825C1.64439 1.92563 1.46888 1.9825 1.38531 2.12875L0.0481344 4.37937C-0.035439 4.52562 -0.00200953 4.69625 0.131708 4.79375L1.5441 5.86625C1.51067 6.06938 1.4856 6.28875 1.4856 6.5C1.4856 6.71125 1.50231 6.93062 1.53574 7.13375L0.12335 8.20625C-0.00200973 8.30375 -0.035439 8.4825 0.0397771 8.62062L1.37695 10.8713C1.46052 11.0175 1.63603 11.0663 1.78646 11.0175L3.44957 10.3675C3.80058 10.6275 4.1683 10.8387 4.57781 11.0013L4.82853 12.7238C4.86196 12.8862 4.99568 13 5.16283 13H7.83718C8.00432 13 8.1464 12.8862 8.16311 12.7238L8.41383 11.0013C8.82334 10.8387 9.19942 10.6194 9.54207 10.3675L11.2052 11.0175C11.3556 11.0744 11.5311 11.0175 11.6147 10.8713L12.9519 8.62062C13.0354 8.47437 13.002 8.30375 12.8683 8.20625L11.4726 7.13375ZM6.5 8.9375C5.12104 8.9375 3.9928 7.84062 3.9928 6.5C3.9928 5.15938 5.12104 4.0625 6.5 4.0625C7.87896 4.0625 9.0072 5.15938 9.0072 6.5C9.0072 7.84062 7.87896 8.9375 6.5 8.9375Z" fill="white"/>
</svg>
